<svg id="Capa_1" enable-background="new 0 0 512 512" height="512" viewBox="0 0 512 512" width="512" xmlns="http://www.w3.org/2000/svg"><path d="m428.531 184.307c1.979 0 3.896-.783 5.315-2.208l75.969-76.307c1.979-1.989 2.684-4.916 1.824-7.588-.859-2.671-3.138-4.64-5.905-5.102l-40.839-6.814 2.541-2.541c10.527-10.527 10.527-27.656 0-38.184-10.526-10.526-27.656-10.528-38.185 0l-2.661 2.661-6.685-41.906c-.444-2.784-2.412-5.084-5.095-5.953-2.68-.87-5.625-.16-7.617 1.834l-76.6 76.676c-1.707 1.709-2.487 4.135-2.095 6.519l1.04 6.321c-32.455-17.519-68.793-26.715-106.038-26.715-43.359 0-85.413 12.433-121.613 35.954-3.474 2.257-4.46 6.902-2.203 10.375 1.437 2.211 3.842 3.415 6.296 3.415 1.4 0 2.817-.392 4.079-1.212 33.762-21.937 72.989-33.532 113.441-33.532 38.735 0 76.411 10.657 109.188 30.845l4.42 26.862-13.074 13.074c-29.297-21.467-63.911-32.781-100.534-32.781-94.014 0-170.5 76.486-170.5 170.5s76.486 170.5 170.5 170.5 170.5-76.486 170.5-170.5c0-1.609-.022-3.213-.066-4.812-.113-4.14-3.532-7.405-7.703-7.292-4.141.113-7.404 3.562-7.291 7.703.04 1.462.061 2.929.061 4.4 0 85.743-69.757 155.5-155.5 155.5s-155.501-69.756-155.501-155.499 69.757-155.5 155.5-155.5c32.615 0 63.479 9.84 89.788 28.528l-27.405 27.405c-18.682-11.739-40.111-17.933-62.383-17.933-64.79 0-117.5 52.71-117.5 117.5 0 7.772.765 15.545 2.271 23.102 1.81 9.607 16.747 6.554 14.711-2.935-1.315-6.592-1.982-13.377-1.982-20.167 0-56.519 45.981-102.5 102.5-102.5 18.268 0 35.883 4.773 51.466 13.85l-29.191 29.191c-7.1-2.668-14.566-4.041-22.275-4.041-35.014 0-63.5 28.486-63.5 63.5s28.486 63.5 63.5 63.5 63.5-28.486 63.5-63.5c0-7.167-1.192-14.14-3.509-20.807l29.389-29.389c8.6 15.273 13.12 32.461 13.12 50.196 0 56.519-45.981 102.5-102.5 102.5-37.197 0-71.474-19.986-89.453-52.159-2.021-3.617-6.592-4.909-10.205-2.888-3.616 2.021-4.909 6.59-2.889 10.206 20.627 36.912 59.921 59.841 102.547 59.841 64.79 0 117.5-52.71 117.5-117.5 0-21.735-5.927-42.758-17.164-61.152l27.463-27.463c10.982 15.776 18.827 33.213 23.355 51.949.83 3.435 3.9 5.74 7.284 5.74.583 0 1.176-.069 1.768-.212 4.026-.973 6.501-5.026 5.528-9.052-5.179-21.43-14.322-41.302-27.183-59.178l13.451-13.451 26.056 4.288c19.925 32.62 30.442 70.069 30.442 108.531 0 114.968-93.532 208.5-208.5 208.5s-208.5-93.532-208.5-208.5c0-58.984 25.155-115.47 69.015-154.974 3.077-2.772 3.325-7.514.554-10.592-2.774-3.079-7.517-3.325-10.593-.553-47.013 42.343-73.976 102.891-73.976 166.119 0 59.699 23.248 115.825 65.462 158.039 42.213 42.213 98.339 65.461 158.038 65.461s115.825-23.248 158.038-65.461c42.214-42.214 65.462-98.34 65.462-158.039 0-36.985-9.076-73.1-26.367-105.392l6.68 1.099c.407.067.814.1 1.218.1zm60.402-78.8-17.4 17.477-37.14-6.193 17.469-17.469zm-49.074-49.336c2.339-2.339 5.412-3.509 8.484-3.509 3.073 0 6.146 1.169 8.485 3.509 4.679 4.679 4.679 12.292 0 16.971l-221.687 221.688c-4.679 4.68-12.293 4.678-16.97 0-4.679-4.679-4.679-12.292 0-16.971zm-32.449-32.964 6.081 38.118-17.491 17.491-6.314-37.867zm-63.484 63.548 32.729-32.761 6.312 37.856-32.805 32.805zm-71.926 201.745c0 26.743-21.757 48.5-48.5 48.5s-48.5-21.757-48.5-48.5 21.757-48.5 48.5-48.5c3.483 0 6.899.37 10.232 1.084l-26.168 26.168c-10.527 10.527-10.527 27.656 0 38.184 5.264 5.264 12.178 7.896 19.093 7.896 6.914 0 13.828-2.632 19.092-7.896l25.489-25.489c.497 2.801.762 5.655.762 8.553zm116.556-125.872 32.803-32.803 37.189 6.201-32.608 32.754z"/></svg>